<svg xmlns="http://www.w3.org/2000/svg" version="1.1" xmlns:xlink="http://www.w3.org/1999/xlink" width="200" height="200"><svg xmlns="http://www.w3.org/2000/svg" version="1.1" xmlns:xlink="http://www.w3.org/1999/xlink" viewBox="0 0 200 200"><rect width="200" height="200" fill="url('#gradient')"></rect><defs><linearGradient id="SvgjsLinearGradient1001" gradientTransform="rotate(45 0.5 0.5)"><stop offset="0%" stop-color="#000000"></stop><stop offset="100%" stop-color="#000000"></stop></linearGradient></defs><g><g fill="#00ff34" transform="matrix(2.3703703703703702,0,0,2.3703703703703702,24.742694702965252,112.5187589680707)" stroke="#c9fff8" stroke-width="0.2"><path d="M3.72-10.57L5.21-7.66L6.74-10.57L10.16-10.57L7.37-5.42L10.29 0L6.86 0L5.20-3.13L3.56 0L0.11 0L3.04-5.42L0.26-10.57L3.72-10.57ZM14.01-10.57L15.50-7.66L17.03-10.57L20.45-10.57L17.67-5.42L20.59 0L17.15 0L15.49-3.13L13.86 0L10.40 0L13.33-5.42L10.56-10.57L14.01-10.57ZM30.75 0L27.46 0Q27.29-0.32 27.15-0.95L27.15-0.95Q26.24 0.20 24.61 0.20L24.61 0.20Q23.12 0.20 22.07-0.71Q21.03-1.61 21.03-2.98L21.03-2.98Q21.03-4.70 22.29-5.58Q23.56-6.46 25.99-6.46L25.99-6.46L27.00-6.46L27.00-7.01Q27.00-8.47 25.74-8.47L25.74-8.47Q24.57-8.47 24.57-7.31L24.57-7.31L21.28-7.31Q21.28-8.85 22.58-9.80Q23.89-10.76 25.91-10.76Q27.93-10.76 29.10-9.78Q30.27-8.79 30.30-7.07L30.30-7.07L30.30-2.39Q30.32-0.94 30.75-0.17L30.75-0.17L30.75 0ZM25.40-2.15L25.40-2.15Q26.02-2.15 26.42-2.41Q26.83-2.68 27.00-3.01L27.00-3.01L27.00-4.70L26.04-4.70Q24.33-4.70 24.33-3.15L24.33-3.15Q24.33-2.71 24.63-2.43Q24.93-2.15 25.40-2.15ZM32.06-10.57L35.15-10.57L35.25-9.33Q36.35-10.76 38.27-10.76L38.27-10.76Q39.92-10.76 40.74-9.78Q41.55-8.79 41.58-6.81L41.58-6.81L41.58 0L38.28 0L38.28-6.67Q38.28-7.47 37.96-7.85Q37.64-8.22 36.79-8.22L36.79-8.22Q35.82-8.22 35.35-7.46L35.35-7.46L35.35 0L32.06 0L32.06-10.57ZM52.65 0L49.36 0Q49.18-0.32 49.04-0.95L49.04-0.95Q48.13 0.20 46.50 0.20L46.50 0.20Q45.01 0.20 43.96-0.71Q42.92-1.61 42.92-2.98L42.92-2.98Q42.92-4.70 44.19-5.58Q45.46-6.46 47.88-6.46L47.88-6.46L48.90-6.46L48.90-7.01Q48.90-8.47 47.64-8.47L47.64-8.47Q46.46-8.47 46.46-7.31L46.46-7.31L43.17-7.31Q43.17-8.85 44.48-9.80Q45.78-10.76 47.80-10.76Q49.82-10.76 51.00-9.78Q52.17-8.79 52.20-7.07L52.20-7.07L52.20-2.39Q52.22-0.94 52.65-0.17L52.65-0.17L52.65 0ZM47.29-2.15L47.29-2.15Q47.91-2.15 48.32-2.41Q48.72-2.68 48.90-3.01L48.90-3.01L48.90-4.70L47.94-4.70Q46.22-4.70 46.22-3.15L46.22-3.15Q46.22-2.71 46.52-2.43Q46.83-2.15 47.29-2.15ZM56.82-10.57L58.30-7.66L59.83-10.57L63.25-10.57L60.47-5.42L63.39 0L59.95 0L58.29-3.13L56.66 0L53.20 0L56.13-5.42L53.36-10.57L56.82-10.57Z"></path></g></g></svg><style>@media (prefers-color-scheme: light) { :root { filter: none; } }
@media (prefers-color-scheme: dark) { :root { filter: none; } }
</style></svg>